<svg width="30" height="30" viewBox="0 0 30 30" fill="none" xmlns="http://www.w3.org/2000/svg">
<rect width="30" height="30" rx="8" fill="#EFEFF0"/>
<mask id="mask0_104_1324" style="mask-type:luminance" maskUnits="userSpaceOnUse" x="5" y="5" width="20" height="20">
<path fill-rule="evenodd" clip-rule="evenodd" d="M5.00043 5.0002H24.96V24.95H5.00043V5.0002Z" fill="white"/>
</mask>
<g mask="url(#mask0_104_1324)">
<path fill-rule="evenodd" clip-rule="evenodd" d="M10.6504 6.5C8.12943 6.5 6.50043 8.227 6.50043 10.899V19.051C6.50043 21.724 8.12943 23.45 10.6504 23.45H19.3004C21.8274 23.45 23.4604 21.724 23.4604 19.051V10.899C23.4604 8.227 21.8274 6.5 19.3004 6.5H10.6504ZM19.3004 24.95H10.6504C7.27043 24.95 5.00043 22.579 5.00043 19.051V10.899C5.00043 7.371 7.27043 5 10.6504 5H19.3004C22.6854 5 24.9604 7.371 24.9604 10.899V19.051C24.9604 22.579 22.6854 24.95 19.3004 24.95Z" fill="#AFB1B6"/>
</g>
<path fill-rule="evenodd" clip-rule="evenodd" d="M8.28144 20.1804C8.09544 20.1804 7.91044 20.1124 7.76544 19.9744C7.46444 19.6904 7.45244 19.2144 7.73744 18.9154L9.26544 17.3024C10.0744 16.4434 11.4394 16.4014 12.3024 17.2114L13.2604 18.1834C13.5274 18.4534 13.9614 18.4584 14.2294 18.1944C14.3304 18.0754 16.5084 15.4304 16.5084 15.4304C16.9224 14.9284 17.5064 14.6184 18.1554 14.5544C18.8054 14.4974 19.4364 14.6864 19.9394 15.0994C19.9824 15.1344 20.0214 15.1684 22.2174 17.4234C22.5064 17.7194 22.5014 18.1944 22.2044 18.4834C21.9084 18.7744 21.4324 18.7654 21.1434 18.4694C21.1434 18.4694 19.0944 16.3664 18.9484 16.2244C18.7934 16.0974 18.5444 16.0234 18.2994 16.0474C18.0504 16.0724 17.8264 16.1914 17.6674 16.3844C15.3434 19.2034 15.3154 19.2304 15.2774 19.2674C14.4194 20.1094 13.0344 20.0954 12.1914 19.2354C12.1914 19.2354 11.2614 18.2914 11.2454 18.2724C11.0144 18.0584 10.6024 18.0724 10.3554 18.3334L8.82544 19.9464C8.67744 20.1024 8.47944 20.1804 8.28144 20.1804Z" fill="#AFB1B6"/>
<path fill-rule="evenodd" clip-rule="evenodd" d="M11.5576 11.1289C11.0046 11.1289 10.5546 11.5789 10.5546 12.1329C10.5546 12.6869 11.0046 13.1379 11.5586 13.1379C12.1126 13.1379 12.5636 12.6869 12.5636 12.1329C12.5636 11.5799 12.1126 11.1299 11.5576 11.1289ZM11.5586 14.6379C10.1776 14.6379 9.05463 13.5139 9.05463 12.1329C9.05463 10.7519 10.1776 9.6289 11.5586 9.6289C12.9406 9.6299 14.0636 10.7539 14.0636 12.1329C14.0636 13.5139 12.9396 14.6379 11.5586 14.6379Z" fill="#AFB1B6"/>
</svg>
