<svg width="14" height="14" viewBox="0 0 14 14" fill="none" xmlns="http://www.w3.org/2000/svg">
<path fill-rule="evenodd" clip-rule="evenodd" d="M12.0554 5.7775H1.65808C1.41658 5.7775 1.22058 5.5815 1.22058 5.34C1.22058 5.0985 1.41658 4.9025 1.65808 4.9025H12.0554C12.2969 4.9025 12.4929 5.0985 12.4929 5.34C12.4929 5.5815 12.2969 5.7775 12.0554 5.7775Z" fill="#979797"/>
<path fill-rule="evenodd" clip-rule="evenodd" d="M9.4507 8.05557C9.2092 8.05557 9.01086 7.85957 9.01086 7.61807C9.01086 7.37657 9.20395 7.18057 9.44545 7.18057H9.4507C9.6922 7.18057 9.8882 7.37657 9.8882 7.61807C9.8882 7.85957 9.6922 8.05557 9.4507 8.05557Z" fill="#979797"/>
<path fill-rule="evenodd" clip-rule="evenodd" d="M6.8622 8.05557C6.6207 8.05557 6.42236 7.85957 6.42236 7.61807C6.42236 7.37657 6.61545 7.18057 6.85695 7.18057H6.8622C7.1037 7.18057 7.2997 7.37657 7.2997 7.61807C7.2997 7.85957 7.1037 8.05557 6.8622 8.05557Z" fill="#979797"/>
<path fill-rule="evenodd" clip-rule="evenodd" d="M4.26818 8.05557C4.02668 8.05557 3.82776 7.85957 3.82776 7.61807C3.82776 7.37657 4.02143 7.18057 4.26293 7.18057H4.26818C4.50968 7.18057 4.70568 7.37657 4.70568 7.61807C4.70568 7.85957 4.50968 8.05557 4.26818 8.05557Z" fill="#979797"/>
<path fill-rule="evenodd" clip-rule="evenodd" d="M9.4507 10.3228C9.2092 10.3228 9.01086 10.1268 9.01086 9.88531C9.01086 9.64381 9.20395 9.44781 9.44545 9.44781H9.4507C9.6922 9.44781 9.8882 9.64381 9.8882 9.88531C9.8882 10.1268 9.6922 10.3228 9.4507 10.3228Z" fill="#979797"/>
<path fill-rule="evenodd" clip-rule="evenodd" d="M6.8622 10.3228C6.6207 10.3228 6.42236 10.1268 6.42236 9.88531C6.42236 9.64381 6.61545 9.44781 6.85695 9.44781H6.8622C7.1037 9.44781 7.2997 9.64381 7.2997 9.88531C7.2997 10.1268 7.1037 10.3228 6.8622 10.3228Z" fill="#979797"/>
<path fill-rule="evenodd" clip-rule="evenodd" d="M4.26818 10.3228C4.02668 10.3228 3.82776 10.1268 3.82776 9.88531C3.82776 9.64381 4.02143 9.44781 4.26293 9.44781H4.26818C4.50968 9.44781 4.70568 9.64381 4.70568 9.88531C4.70568 10.1268 4.50968 10.3228 4.26818 10.3228Z" fill="#979797"/>
<path fill-rule="evenodd" clip-rule="evenodd" d="M9.21289 3.37806C8.97139 3.37806 8.77539 3.18206 8.77539 2.94056V1.02081C8.77539 0.779313 8.97139 0.583313 9.21289 0.583313C9.45439 0.583313 9.65039 0.779313 9.65039 1.02081V2.94056C9.65039 3.18206 9.45439 3.37806 9.21289 3.37806Z" fill="#979797"/>
<path fill-rule="evenodd" clip-rule="evenodd" d="M4.50061 3.37806C4.25911 3.37806 4.06311 3.18206 4.06311 2.94056V1.02081C4.06311 0.779313 4.25911 0.583313 4.50061 0.583313C4.74211 0.583313 4.93811 0.779313 4.93811 1.02081V2.94056C4.93811 3.18206 4.74211 3.37806 4.50061 3.37806Z" fill="#979797"/>
<mask id="mask0_104_1611" style="mask-type:luminance" maskUnits="userSpaceOnUse" x="1" y="1" width="12" height="13">
<path fill-rule="evenodd" clip-rule="evenodd" d="M1.16663 1.50446H12.5416V13.125H1.16663V1.50446Z" fill="white"/>
</mask>
<g mask="url(#mask0_104_1611)">
<path fill-rule="evenodd" clip-rule="evenodd" d="M4.38721 2.37946C2.87463 2.37946 2.04163 3.18621 2.04163 4.65096V9.92954C2.04163 11.4264 2.87463 12.25 4.38721 12.25H9.32104C10.8336 12.25 11.6666 11.4415 11.6666 9.97387V4.65096C11.669 3.93054 11.4753 3.37054 11.0909 2.98554C10.6954 2.58887 10.0858 2.37946 9.32629 2.37946H4.38721ZM9.32104 13.125H4.38721C2.40096 13.125 1.16663 11.9006 1.16663 9.92954V4.65096C1.16663 2.70962 2.40096 1.50446 4.38721 1.50446H9.32629C10.3232 1.50446 11.1475 1.80312 11.7104 2.36721C12.257 2.91612 12.5445 3.70537 12.5416 4.65212V9.97387C12.5416 11.9175 11.3073 13.125 9.32104 13.125Z" fill="#979797"/>
</g>
</svg>
