<svg width="15" height="14" viewBox="0 0 15 14" fill="none" xmlns="http://www.w3.org/2000/svg">
<mask id="mask0_2018_94" style="mask-type:luminance" maskUnits="userSpaceOnUse" x="0" y="0" width="15" height="14">
<path fill-rule="evenodd" clip-rule="evenodd" d="M0.625 0.125183H14.0581V13.5588H0.625V0.125183Z" fill="white"/>
</mask>
<g mask="url(#mask0_2018_94)">
<path fill-rule="evenodd" clip-rule="evenodd" d="M3.81774 11.7971C4.18024 11.7971 4.52212 11.9346 4.88399 12.0802C7.10087 13.1052 9.72274 12.6389 11.4309 10.9314C13.6846 8.67643 13.6846 5.00831 11.4309 2.75456C10.3396 1.66331 8.88837 1.06268 7.34337 1.06268C5.79774 1.06268 4.34587 1.66393 3.25524 2.75518C1.54649 4.46268 1.08149 7.08456 2.09712 9.28018C2.24337 9.64206 2.38462 9.99456 2.38462 10.3608C2.38462 10.7264 2.25899 11.0946 2.14837 11.4196C2.05712 11.6871 1.91899 12.0908 2.00774 12.1796C2.09462 12.2696 2.50087 12.1277 2.76899 12.0358C3.09087 11.9258 3.45587 11.7996 3.81774 11.7971V11.7971ZM7.32774 13.5589C6.37274 13.5589 5.41149 13.3571 4.51212 12.9408C4.24712 12.8346 3.99899 12.7346 3.82087 12.7346C3.61587 12.7358 3.34024 12.8308 3.07399 12.9227C2.52774 13.1102 1.84774 13.3439 1.34462 12.8427C0.843368 12.3408 1.07462 11.6627 1.26087 11.1171C1.35274 10.8483 1.44712 10.5708 1.44712 10.3608C1.44712 10.1883 1.36399 9.96831 1.23649 9.65143C0.0658677 7.12331 0.607118 4.07643 2.59274 2.09206C3.86024 0.823933 5.54712 0.125183 7.34274 0.125183C9.13837 0.125183 10.8259 0.823308 12.0934 2.09143C14.7134 4.71143 14.7134 8.97393 12.0934 11.5939C10.809 12.8789 9.07962 13.5589 7.32774 13.5589V13.5589Z" fill="white" fill-opacity="0.8"/>
</g>
<path fill-rule="evenodd" clip-rule="evenodd" d="M9.81019 7.72687C9.46519 7.72687 9.18269 7.44749 9.18269 7.10187C9.18269 6.75624 9.45957 6.47687 9.80457 6.47687H9.81019C10.1552 6.47687 10.4352 6.75624 10.4352 7.10187C10.4352 7.44749 10.1552 7.72687 9.81019 7.72687" fill="white" fill-opacity="0.8"/>
<path fill-rule="evenodd" clip-rule="evenodd" d="M7.30468 7.72687C6.95968 7.72687 6.67719 7.44749 6.67719 7.10187C6.67719 6.75624 6.95343 6.47687 7.29906 6.47687H7.30468C7.64968 6.47687 7.92968 6.75624 7.92968 7.10187C7.92968 7.44749 7.64968 7.72687 7.30468 7.72687" fill="white" fill-opacity="0.8"/>
<path fill-rule="evenodd" clip-rule="evenodd" d="M4.79893 7.72687C4.45393 7.72687 4.17143 7.44749 4.17143 7.10187C4.17143 6.75624 4.44831 6.47687 4.79331 6.47687H4.79893C5.14393 6.47687 5.42393 6.75624 5.42393 7.10187C5.42393 7.44749 5.14393 7.72687 4.79893 7.72687" fill="white" fill-opacity="0.8"/>
</svg>
