<svg width="17" height="16" viewBox="0 0 17 16" fill="none" xmlns="http://www.w3.org/2000/svg">
<mask id="mask0_2018_560" style="mask-type:luminance" maskUnits="userSpaceOnUse" x="1" y="0" width="15" height="15">
<path fill-rule="evenodd" clip-rule="evenodd" d="M1.16667 0.66687H15.4953V14.9961H1.16667V0.66687Z" fill="white"/>
</mask>
<g mask="url(#mask0_2018_560)">
<path fill-rule="evenodd" clip-rule="evenodd" d="M4.57227 13.1169C4.95893 13.1169 5.3236 13.2635 5.7096 13.4189C8.07427 14.5122 10.8709 14.0149 12.6929 12.1935C15.0969 9.7882 15.0969 5.87554 12.6929 3.47154C11.5289 2.30754 9.98093 1.66687 8.33293 1.66687C6.68427 1.66687 5.1356 2.3082 3.97227 3.4722C2.1496 5.29354 1.6536 8.0902 2.73693 10.4322C2.89293 10.8182 3.0436 11.1942 3.0436 11.5849C3.0436 11.9749 2.9096 12.3675 2.7916 12.7142C2.69427 12.9995 2.54693 13.4302 2.6416 13.5249C2.73427 13.6209 3.1676 13.4695 3.4536 13.3715C3.79693 13.2542 4.18627 13.1195 4.57227 13.1169V13.1169ZM8.31627 14.9962C7.2976 14.9962 6.27227 14.7809 5.31293 14.3369C5.03027 14.2235 4.7656 14.1169 4.5756 14.1169C4.35693 14.1182 4.06293 14.2195 3.77893 14.3175C3.19627 14.5175 2.47093 14.7669 1.93427 14.2322C1.3996 13.6969 1.64627 12.9735 1.84493 12.3915C1.94293 12.1049 2.0436 11.8089 2.0436 11.5849C2.0436 11.4009 1.95493 11.1662 1.81893 10.8282C0.570266 8.13154 1.1476 4.88154 3.2656 2.76487C4.6176 1.4122 6.41693 0.66687 8.33227 0.66687C10.2476 0.66687 12.0476 1.41154 13.3996 2.7642C16.1943 5.55887 16.1943 10.1055 13.3996 12.9002C12.0296 14.2709 10.1849 14.9962 8.31627 14.9962V14.9962Z" fill="#C77EB5"/>
</g>
<path fill-rule="evenodd" clip-rule="evenodd" d="M10.9642 8.77523C10.5962 8.77523 10.2949 8.47723 10.2949 8.10856C10.2949 7.73989 10.5902 7.44189 10.9582 7.44189H10.9642C11.3322 7.44189 11.6309 7.73989 11.6309 8.10856C11.6309 8.47723 11.3322 8.77523 10.9642 8.77523" fill="#C77EB5"/>
<path fill-rule="evenodd" clip-rule="evenodd" d="M8.29166 8.77523C7.92366 8.77523 7.62233 8.47723 7.62233 8.10856C7.62233 7.73989 7.917 7.44189 8.28566 7.44189H8.29166C8.65966 7.44189 8.95833 7.73989 8.95833 8.10856C8.95833 8.47723 8.65966 8.77523 8.29166 8.77523" fill="#C77EB5"/>
<path fill-rule="evenodd" clip-rule="evenodd" d="M5.61887 8.77523C5.25087 8.77523 4.94954 8.47723 4.94954 8.10856C4.94954 7.73989 5.24487 7.44189 5.61287 7.44189H5.61887C5.98687 7.44189 6.28554 7.73989 6.28554 8.10856C6.28554 8.47723 5.98687 8.77523 5.61887 8.77523" fill="#C77EB5"/>
</svg>
