<svg width="15" height="16" viewBox="0 0 15 16" fill="none" xmlns="http://www.w3.org/2000/svg">
<mask id="mask0_104_1545" style="mask-type:luminance" maskUnits="userSpaceOnUse" x="0" y="1" width="15" height="14">
<path fill-rule="evenodd" clip-rule="evenodd" d="M0.625 1.1252H14.0581V14.5588H0.625V1.1252Z" fill="white"/>
</mask>
<g mask="url(#mask0_104_1545)">
<path fill-rule="evenodd" clip-rule="evenodd" d="M3.81777 12.7971C4.18027 12.7971 4.52215 12.9346 4.88402 13.0802C7.1009 14.1052 9.72277 13.6389 11.4309 11.9314C13.6846 9.67645 13.6846 6.00832 11.4309 3.75457C10.3396 2.66332 8.8884 2.0627 7.3434 2.0627C5.79777 2.0627 4.3459 2.66395 3.25527 3.7552C1.54652 5.4627 1.08152 8.08457 2.09715 10.2802C2.2434 10.6421 2.38465 10.9946 2.38465 11.3608C2.38465 11.7264 2.25902 12.0946 2.1484 12.4196C2.05715 12.6871 1.91902 13.0908 2.00777 13.1796C2.09465 13.2696 2.5009 13.1277 2.76902 13.0358C3.0909 12.9258 3.4559 12.7996 3.81777 12.7971ZM7.32777 14.5589C6.37277 14.5589 5.41152 14.3571 4.51215 13.9408C4.24715 13.8346 3.99902 13.7346 3.8209 13.7346C3.6159 13.7358 3.34027 13.8308 3.07402 13.9227C2.52777 14.1102 1.84777 14.3439 1.34465 13.8427C0.843398 13.3408 1.07465 12.6627 1.2609 12.1171C1.35277 11.8483 1.44715 11.5708 1.44715 11.3608C1.44715 11.1883 1.36402 10.9683 1.23652 10.6514C0.0658982 8.12332 0.607148 5.07645 2.59277 3.09207C3.86027 1.82395 5.54715 1.1252 7.34277 1.1252C9.1384 1.1252 10.8259 1.82332 12.0934 3.09145C14.7134 5.71145 14.7134 9.97395 12.0934 12.5939C10.809 13.8789 9.07965 14.5589 7.32777 14.5589Z" fill="#979797"/>
</g>
<path fill-rule="evenodd" clip-rule="evenodd" d="M9.81024 8.72688C9.46524 8.72688 9.18274 8.44751 9.18274 8.10188C9.18274 7.75626 9.45961 7.47688 9.80461 7.47688H9.81024C10.1552 7.47688 10.4352 7.75626 10.4352 8.10188C10.4352 8.44751 10.1552 8.72688 9.81024 8.72688Z" fill="#979797"/>
<path fill-rule="evenodd" clip-rule="evenodd" d="M7.30475 8.72688C6.95975 8.72688 6.67725 8.44751 6.67725 8.10188C6.67725 7.75626 6.9535 7.47688 7.29912 7.47688H7.30475C7.64975 7.47688 7.92975 7.75626 7.92975 8.10188C7.92975 8.44751 7.64975 8.72688 7.30475 8.72688Z" fill="#979797"/>
<path fill-rule="evenodd" clip-rule="evenodd" d="M4.79889 8.72688C4.45389 8.72688 4.17139 8.44751 4.17139 8.10188C4.17139 7.75626 4.44826 7.47688 4.79326 7.47688H4.79889C5.14389 7.47688 5.42389 7.75626 5.42389 8.10188C5.42389 8.44751 5.14389 8.72688 4.79889 8.72688Z" fill="#979797"/>
</svg>
