<svg width="14" height="14" viewBox="0 0 14 14" fill="none" xmlns="http://www.w3.org/2000/svg">
<mask id="mask0_2018_605" style="mask-type:luminance" maskUnits="userSpaceOnUse" x="0" y="0" width="14" height="14">
<path fill-rule="evenodd" clip-rule="evenodd" d="M0.25 0.874939H13.0453V13.0631H0.25V0.874939Z" fill="white"/>
</mask>
<g mask="url(#mask0_2018_605)">
<path fill-rule="evenodd" clip-rule="evenodd" d="M1.38982 6.57683C2.26607 9.30308 5.72795 11.5075 6.64795 12.0531C7.57107 11.5018 11.0579 9.27308 11.9061 6.57933C12.4629 4.83808 11.9461 2.63245 9.89232 1.97058C8.89732 1.6512 7.7367 1.84558 6.93545 2.46558C6.76795 2.59433 6.53545 2.59683 6.3667 2.46933C5.51795 1.8312 4.4092 1.64433 3.39857 1.97058C1.34795 2.63183 0.832945 4.83745 1.38982 6.57683M6.64857 13.0631C6.57107 13.0631 6.4942 13.0443 6.4242 13.0062C6.22857 12.8993 1.62045 10.3593 0.49732 6.86308C0.496695 6.86308 0.496695 6.86245 0.496695 6.86245C-0.208305 4.6612 0.576695 1.89495 3.11107 1.07808C4.30107 0.693077 5.59795 0.862452 6.6467 1.52433C7.66295 0.881827 9.01295 0.704327 10.1792 1.07808C12.7161 1.8962 13.5036 4.66183 12.7992 6.86245C11.7123 10.3187 7.07045 12.8968 6.87357 13.005C6.80357 13.0437 6.72607 13.0631 6.64857 13.0631" fill="white"/>
</g>
<path fill-rule="evenodd" clip-rule="evenodd" d="M10.3461 5.64055C10.1042 5.64055 9.89918 5.45492 9.87918 5.20992C9.83793 4.69617 9.49418 4.26242 9.00481 4.1043C8.75793 4.0243 8.62293 3.75992 8.70231 3.5143C8.78293 3.26805 9.04481 3.1343 9.29231 3.2118C10.1442 3.48742 10.7411 4.2418 10.8142 5.13367C10.8348 5.3918 10.6429 5.61805 10.3848 5.63867C10.3717 5.63992 10.3592 5.64055 10.3461 5.64055" fill="white"/>
</svg>
