<svg width="13" height="13" viewBox="0 0 13 13" fill="none" xmlns="http://www.w3.org/2000/svg">
<mask id="mask0_276_1089" style="mask-type:luminance" maskUnits="userSpaceOnUse" x="0" y="0" width="13" height="13">
<path fill-rule="evenodd" clip-rule="evenodd" d="M0 0H12.7953V12.1881H0V0Z" fill="white"/>
</mask>
<g mask="url(#mask0_276_1089)">
<path fill-rule="evenodd" clip-rule="evenodd" d="M1.13982 5.70194C2.01607 8.42819 5.47795 10.6326 6.39795 11.1782C7.32107 10.6269 10.8079 8.39819 11.6561 5.70444C12.2129 3.96319 11.6961 1.75756 9.64232 1.09569C8.64732 0.776312 7.4867 0.970687 6.68545 1.59069C6.51795 1.71944 6.28545 1.72194 6.1167 1.59444C5.26795 0.956312 4.1592 0.769437 3.14857 1.09569C1.09795 1.75694 0.582945 3.96256 1.13982 5.70194M6.39857 12.1882C6.32107 12.1882 6.2442 12.1694 6.1742 12.1313C5.97857 12.0244 1.37045 9.48444 0.24732 5.98819C0.246695 5.98819 0.246695 5.98756 0.246695 5.98756C-0.458305 3.78631 0.326695 1.02006 2.86107 0.203187C4.05107 -0.181813 5.34795 -0.0124377 6.3967 0.649437C7.41295 0.00693735 8.76295 -0.170563 9.9292 0.203187C12.4661 1.02131 13.2536 3.78694 12.5492 5.98756C11.4623 9.44381 6.82045 12.0219 6.62357 12.1301C6.55357 12.1688 6.47607 12.1882 6.39857 12.1882" fill="#D35151"/>
</g>
<path fill-rule="evenodd" clip-rule="evenodd" d="M10.0961 4.76562C9.85418 4.76562 9.64918 4.58 9.62918 4.335C9.58793 3.82125 9.24418 3.3875 8.75481 3.22937C8.50793 3.14937 8.37293 2.885 8.45231 2.63937C8.53293 2.39312 8.79481 2.25937 9.04231 2.33687C9.89418 2.6125 10.4911 3.36687 10.5642 4.25875C10.5848 4.51687 10.3929 4.74312 10.1348 4.76375C10.1217 4.765 10.1092 4.76562 10.0961 4.76562" fill="#D35151"/>
</svg>
