<svg width="60" height="60" viewBox="0 0 60 60" fill="none" xmlns="http://www.w3.org/2000/svg">
<path fill-rule="evenodd" clip-rule="evenodd" d="M30 5.20831C16.3296 5.20831 5.20833 16.3296 5.20833 30C5.20833 43.6704 16.3296 54.7916 30 54.7916C43.6704 54.7916 54.7917 43.6704 54.7917 30C54.7917 16.3296 43.6704 5.20831 30 5.20831M30 59.1666C13.9175 59.1666 0.833328 46.0825 0.833328 30C0.833328 13.9175 13.9175 0.833313 30 0.833313C46.0825 0.833313 59.1667 13.9175 59.1667 30C59.1667 46.0825 46.0825 59.1666 30 59.1666" fill="#2468A2" fill-opacity="0.8"/>
<path fill-rule="evenodd" clip-rule="evenodd" d="M25.7959 42.3104C25.2359 42.3104 24.673 42.0975 24.2472 41.6658C23.3955 40.8083 23.3984 39.4258 24.253 38.5741L32.863 29.9991L24.253 21.427C23.3984 20.5754 23.3955 19.19 24.2472 18.3325C25.0988 17.472 26.4813 17.4779 27.3388 18.3266L37.5063 28.4504C37.9176 28.8616 38.148 29.4187 38.148 29.9991C38.148 30.5825 37.9176 31.1395 37.5063 31.5508L27.3388 41.6716C26.913 42.0975 26.353 42.3104 25.7959 42.3104" fill="#2468A2" fill-opacity="0.8"/>
</svg>
