<svg width="15" height="16" viewBox="0 0 15 16" fill="none" xmlns="http://www.w3.org/2000/svg">
<mask id="mask0_104_1539" style="mask-type:luminance" maskUnits="userSpaceOnUse" x="1" y="9" width="10" height="5">
<path fill-rule="evenodd" clip-rule="evenodd" d="M1.25 9.22313H10.7399V13.6604H1.25V9.22313Z" fill="white"/>
</mask>
<g mask="url(#mask0_104_1539)">
<path fill-rule="evenodd" clip-rule="evenodd" d="M5.99488 10.1606C4.258 10.1606 2.18738 10.3838 2.18738 11.4494C2.18738 12.2944 3.46863 12.7231 5.99488 12.7231C8.52113 12.7231 9.80238 12.29 9.80238 11.4369C9.80238 10.59 8.52113 10.1606 5.99488 10.1606ZM5.99488 13.6606C4.69738 13.6606 1.24988 13.6606 1.24988 11.4494C1.24988 9.22313 4.82113 9.22313 5.99488 9.22313C8.03175 9.22313 10.7399 9.4525 10.7399 11.4369C10.7399 13.6606 7.16863 13.6606 5.99488 13.6606Z" fill="#979797"/>
</g>
<path fill-rule="evenodd" clip-rule="evenodd" d="M5.99485 2.6875C4.74173 2.6875 3.72235 3.70688 3.72235 4.95937C3.72235 6.21187 4.74173 7.23125 5.99485 7.23125H6.01423C6.61673 7.22875 7.18423 6.99187 7.60985 6.5625C8.0361 6.13438 8.26923 5.565 8.26673 4.96125C8.26673 3.70688 7.24735 2.6875 5.99485 2.6875ZM5.99485 8.16875C4.22485 8.16875 2.78485 6.72875 2.78485 4.95938C2.78485 3.19 4.22485 1.75 5.99485 1.75C7.76423 1.75 9.20423 3.19 9.20423 4.95938C9.20798 5.81188 8.87735 6.61688 8.27485 7.22312C7.6736 7.83 6.87048 8.16563 6.0161 8.16875H5.99485Z" fill="#979797"/>
<path fill-rule="evenodd" clip-rule="evenodd" d="M10.3015 7.45737C10.0715 7.45737 9.87085 7.28799 9.83773 7.05362C9.8021 6.79737 9.98023 6.55987 10.2365 6.52424C11.0165 6.41487 11.6052 5.73799 11.6065 4.94924C11.6065 4.16549 11.0452 3.50424 10.2734 3.37799C10.0177 3.33549 9.8446 3.09487 9.88648 2.83924C9.92835 2.58362 10.1702 2.41174 10.4246 2.45237C11.6527 2.65362 12.544 3.70424 12.544 4.94987C12.5415 6.20299 11.6059 7.27924 10.3671 7.45299C10.3452 7.45612 10.3234 7.45737 10.3015 7.45737Z" fill="#979797"/>
<mask id="mask1_104_1539" style="mask-type:luminance" maskUnits="userSpaceOnUse" x="11" y="8" width="3" height="5">
<path fill-rule="evenodd" clip-rule="evenodd" d="M11.1533 8.92711H13.7369V12.0381H11.1533V8.92711Z" fill="white"/>
</mask>
<g mask="url(#mask1_104_1539)">
<path fill-rule="evenodd" clip-rule="evenodd" d="M12.4347 12.0381C12.2453 12.0381 12.0672 11.9224 11.9966 11.7356C11.9047 11.4937 12.0266 11.2224 12.2684 11.1312C12.7997 10.9299 12.7997 10.6843 12.7997 10.5793C12.7997 10.2249 12.3803 9.98244 11.5534 9.85931C11.2972 9.82056 11.1203 9.58181 11.1584 9.32619C11.1972 9.06994 11.4403 8.89806 11.6916 8.93119C13.3828 9.18431 13.7372 9.96744 13.7372 10.5793C13.7372 11.0349 13.5403 11.6518 12.6009 12.0074C12.5466 12.0281 12.4903 12.0381 12.4347 12.0381Z" fill="#979797"/>
</g>
</svg>
