<svg width="13" height="13" viewBox="0 0 13 13" fill="none" xmlns="http://www.w3.org/2000/svg">
<mask id="mask0_2018_537" style="mask-type:luminance" maskUnits="userSpaceOnUse" x="0" y="8" width="10" height="5">
<path fill-rule="evenodd" clip-rule="evenodd" d="M0.25 8.22308H9.73987V12.6603H0.25V8.22308Z" fill="white"/>
</mask>
<g mask="url(#mask0_2018_537)">
<path fill-rule="evenodd" clip-rule="evenodd" d="M4.99487 9.16058C3.258 9.16058 1.18737 9.38371 1.18737 10.4493C1.18737 11.2943 2.46862 11.7231 4.99487 11.7231C7.52112 11.7231 8.80237 11.29 8.80237 10.4368C8.80237 9.58996 7.52112 9.16058 4.99487 9.16058M4.99487 12.6606C3.69737 12.6606 0.249874 12.6606 0.249874 10.4493C0.249874 8.22308 3.82112 8.22308 4.99487 8.22308C7.03175 8.22308 9.73987 8.45246 9.73987 10.4368C9.73987 12.6606 6.16862 12.6606 4.99487 12.6606" fill="white" fill-opacity="0.8"/>
</g>
<path fill-rule="evenodd" clip-rule="evenodd" d="M4.99487 1.6875C3.74175 1.6875 2.72237 2.70688 2.72237 3.95937C2.72237 5.21187 3.74175 6.23125 4.99487 6.23125H5.01425C5.61675 6.22875 6.18425 5.99187 6.60987 5.5625C7.03612 5.13437 7.26925 4.565 7.26675 3.96125C7.26675 2.70688 6.24737 1.6875 4.99487 1.6875V1.6875ZM4.99487 7.16875C3.22487 7.16875 1.78487 5.72875 1.78487 3.95938C1.78487 2.19 3.22487 0.75 4.99487 0.75C6.76425 0.75 8.20425 2.19 8.20425 3.95938C8.208 4.81188 7.87737 5.61687 7.27487 6.22312C6.67362 6.83 5.8705 7.16563 5.01612 7.16875H4.99487Z" fill="white" fill-opacity="0.8"/>
<path fill-rule="evenodd" clip-rule="evenodd" d="M9.3015 6.45735C9.0715 6.45735 8.87087 6.28798 8.83775 6.0536C8.80212 5.79735 8.98025 5.55985 9.2365 5.52423C10.0165 5.41485 10.6052 4.73798 10.6065 3.94923C10.6065 3.16548 10.0452 2.50423 9.27337 2.37798C9.01775 2.33548 8.84462 2.09485 8.8865 1.83923C8.92837 1.5836 9.17025 1.41173 9.42462 1.45235C10.6527 1.6536 11.544 2.70423 11.544 3.94985C11.5415 5.20298 10.6059 6.27923 9.36712 6.45298C9.34525 6.4561 9.32337 6.45735 9.3015 6.45735" fill="white" fill-opacity="0.8"/>
<mask id="mask1_2018_537" style="mask-type:luminance" maskUnits="userSpaceOnUse" x="10" y="7" width="3" height="5">
<path fill-rule="evenodd" clip-rule="evenodd" d="M10.1533 7.92712H12.7369V11.0381H10.1533V7.92712Z" fill="white"/>
</mask>
<g mask="url(#mask1_2018_537)">
<path fill-rule="evenodd" clip-rule="evenodd" d="M11.4347 11.0381C11.2453 11.0381 11.0672 10.9225 10.9966 10.7356C10.9047 10.4937 11.0266 10.2225 11.2684 10.1312C11.7997 9.92995 11.7997 9.68433 11.7997 9.57933C11.7997 9.22495 11.3803 8.98245 10.5534 8.85933C10.2972 8.82058 10.1203 8.58183 10.1584 8.3262C10.1972 8.06995 10.4403 7.89808 10.6916 7.9312C12.3828 8.18433 12.7372 8.96745 12.7372 9.57933C12.7372 10.035 12.5403 10.6518 11.6009 11.0075C11.5466 11.0281 11.4903 11.0381 11.4347 11.0381" fill="white" fill-opacity="0.8"/>
</g>
</svg>
