<svg width="16" height="16" viewBox="0 0 16 16" fill="none" xmlns="http://www.w3.org/2000/svg">
<mask id="mask0_116_1390" style="mask-type:luminance" maskUnits="userSpaceOnUse" x="1" y="2" width="14" height="13">
<path fill-rule="evenodd" clip-rule="evenodd" d="M1.33334 2.00024H14.3327V14.9996H1.33334V2.00024Z" fill="white"/>
</mask>
<g mask="url(#mask0_116_1390)">
<path fill-rule="evenodd" clip-rule="evenodd" d="M7.20328 9.87847L9.64128 13.8338C9.74794 14.0071 9.91461 14.0051 9.98194 13.9958C10.0493 13.9865 10.2113 13.9451 10.2699 13.7485L13.3186 3.45181C13.3719 3.26981 13.2739 3.14581 13.2299 3.10181C13.1873 3.05781 13.0653 2.96381 12.8886 3.01381L2.58461 6.03114C2.38928 6.08847 2.34661 6.25247 2.33728 6.31981C2.32794 6.38847 2.32528 6.55847 2.49794 6.66714L6.49861 9.16914L10.0333 5.59714C10.2273 5.40114 10.5439 5.39914 10.7406 5.59314C10.9373 5.78714 10.9386 6.10447 10.7446 6.30047L7.20328 9.87847ZM9.92994 14.9998C9.46594 14.9998 9.04061 14.7638 8.78994 14.3585L6.20528 10.1645L1.96794 7.51447C1.51128 7.22847 1.27261 6.71914 1.34661 6.18381C1.41994 5.64847 1.78728 5.22314 2.30328 5.07181L12.6073 2.05447C13.0813 1.91581 13.5893 2.04714 13.9386 2.39514C14.2879 2.74647 14.4179 3.25981 14.2766 3.73581L11.2279 14.0318C11.0753 14.5498 10.6486 14.9158 10.1146 14.9871C10.0519 14.9951 9.99128 14.9998 9.92994 14.9998V14.9998Z" fill="white"/>
</g>
</svg>
