<svg width="15" height="15" viewBox="0 0 15 15" fill="none" xmlns="http://www.w3.org/2000/svg">
<mask id="mask0_2002_264" style="mask-type:luminance" maskUnits="userSpaceOnUse" x="1" y="1" width="14" height="14">
<path fill-rule="evenodd" clip-rule="evenodd" d="M1.25 1.87492H14.0453V14.063H1.25V1.87492Z" fill="white"/>
</mask>
<g mask="url(#mask0_2002_264)">
<path fill-rule="evenodd" clip-rule="evenodd" d="M2.38985 7.57687C3.2661 10.3031 6.72798 12.5075 7.64798 13.0531C8.5711 12.5019 12.058 10.2731 12.9061 7.57937C13.463 5.83812 12.9461 3.6325 10.8924 2.97062C9.89735 2.65125 8.73673 2.84562 7.93548 3.46562C7.76798 3.59437 7.53548 3.59687 7.36673 3.46937C6.51798 2.83125 5.40923 2.64437 4.3986 2.97062C2.34798 3.63187 1.83298 5.8375 2.38985 7.57687M7.6486 14.0631C7.5711 14.0631 7.49423 14.0444 7.42423 14.0062C7.2286 13.8994 2.62048 11.3594 1.49735 7.86312C1.49673 7.86312 1.49673 7.8625 1.49673 7.8625C0.791726 5.66125 1.57673 2.895 4.1111 2.07812C5.3011 1.69312 6.59798 1.8625 7.64673 2.52437C8.66298 1.88187 10.013 1.70437 11.1792 2.07812C13.7161 2.89625 14.5036 5.66187 13.7992 7.8625C12.7124 11.3187 8.07048 13.8969 7.8736 14.005C7.8036 14.0437 7.7261 14.0631 7.6486 14.0631" fill="#D35151"/>
</g>
<path fill-rule="evenodd" clip-rule="evenodd" d="M11.3461 6.64056C11.1042 6.64056 10.8992 6.45494 10.8792 6.20994C10.8379 5.69619 10.4942 5.26244 10.0048 5.10431C9.75793 5.02431 9.62293 4.75994 9.70231 4.51431C9.78293 4.26806 10.0448 4.13431 10.2923 4.21181C11.1442 4.48744 11.7411 5.24181 11.8142 6.13369C11.8348 6.39181 11.6429 6.61806 11.3848 6.63869C11.3717 6.63994 11.3592 6.64056 11.3461 6.64056" fill="#D35151"/>
</svg>
