<svg width="15" height="15" viewBox="0 0 15 15" fill="none" xmlns="http://www.w3.org/2000/svg">
<g clip-path="url(#clip0_104_1638)">
<mask id="mask0_104_1638" style="mask-type:luminance" maskUnits="userSpaceOnUse" x="1" y="1" width="14" height="14">
<path fill-rule="evenodd" clip-rule="evenodd" d="M1.25 1.87494H14.0453V14.0631H1.25V1.87494Z" fill="white"/>
</mask>
<g mask="url(#mask0_104_1638)">
<path fill-rule="evenodd" clip-rule="evenodd" d="M2.38985 7.57689C3.2661 10.3031 6.72798 12.5075 7.64798 13.0531C8.5711 12.5019 12.058 10.2731 12.9061 7.57939C13.463 5.83814 12.9461 3.63251 10.8924 2.97064C9.89735 2.65126 8.73673 2.84564 7.93548 3.46564C7.76798 3.59439 7.53548 3.59689 7.36673 3.46939C6.51798 2.83126 5.40923 2.64439 4.3986 2.97064C2.34798 3.63189 1.83298 5.83751 2.38985 7.57689ZM7.6486 14.0631C7.5711 14.0631 7.49423 14.0444 7.42423 14.0063C7.2286 13.8994 2.62048 11.3594 1.49735 7.86314C1.49673 7.86314 1.49673 7.86251 1.49673 7.86251C0.791726 5.66126 1.57673 2.89501 4.1111 2.07814C5.3011 1.69314 6.59798 1.86251 7.64673 2.52439C8.66298 1.88189 10.013 1.70439 11.1792 2.07814C13.7161 2.89626 14.5036 5.66189 13.7992 7.86251C12.7124 11.3188 8.07048 13.8969 7.8736 14.005C7.8036 14.0438 7.7261 14.0631 7.6486 14.0631Z" fill="#979797"/>
</g>
<path fill-rule="evenodd" clip-rule="evenodd" d="M11.3461 6.64058C11.1042 6.64058 10.8992 6.45495 10.8792 6.20995C10.8379 5.6962 10.4942 5.26245 10.0048 5.10433C9.75793 5.02433 9.62293 4.75995 9.70231 4.51433C9.78293 4.26808 10.0448 4.13433 10.2923 4.21183C11.1442 4.48745 11.7411 5.24183 11.8142 6.1337C11.8348 6.39183 11.6429 6.61808 11.3848 6.6387C11.3717 6.63995 11.3592 6.64058 11.3461 6.64058Z" fill="#979797"/>
</g>
<defs>
<clipPath id="clip0_104_1638">
<rect width="15" height="15" fill="white"/>
</clipPath>
</defs>
</svg>
